PathFileType	4	(X/Y/Z)	Patient4_TMGait_0pt7_01_right_39.trc.trc
DataRate	CameraRate	NumFrames	NumMarkers	Units	OrigDataRate	OrigDataStartFrame	OrigNumFrames
86.419753086420	86.419753086420	5	33	mm	86.419753086420	1	       141
Frame#	Time	Sacral			L.Shoulder			Chest			R.Shoulder			Neck			R.ASIS			L.ASIS			R.Thigh.Superior			R.Thigh.Lateral			R.Thigh.Inferior			R.Patella			L.Thigh.Superior			L.Thigh.Lateral			L.Thigh.Inferior			L.Patella			L.Shank.Superior			L.Shank.Lateral			L.Shank.Inferior			R.Shank.Superior			R.Shank.Lateral			R.Shank.Inferior			R.Heel			R.Midfoot.Superior			R.Midfoot.Lateral			R.Toe			L.Heel			L.Midfoot.Lateral			L.Midfoot.Superior			L.Toe			L.Elbow			L.Wrist			R.Elbow			R.Wrist			
		X1	Y1	Z1	X2	Y2	Z2	X3	Y3	Z3	X4	Y4	Z4	X5	Y5	Z5	X6	Y6	Z6	X7	Y7	Z7	X8	Y8	Z8	X9	Y9	Z9	X10	Y10	Z10	X11	Y11	Z11	X12	Y12	Z12	X13	Y13	Z13	X14	Y14	Z14	X15	Y15	Z15	X16	Y16	Z16	X17	Y17	Z17	X18	Y18	Z18	X19	Y19	Z19	X20	Y20	Z20	X21	Y21	Z21	X22	Y22	Z22	X23	Y23	Z23	X24	Y24	Z24	X25	Y25	Z25	X26	Y26	Z26	X27	Y27	Z27	X28	Y28	Z28	X29	Y29	Z29	X30	Y30	Z30	X31	Y31	Z31	X32	Y32	Z32	X33	Y33	Z33	

1	44.580000000000	845.116197498595	1018.456618292888	444.117599429030	1041.613158053204	1438.979160867159	267.346713202890	1142.247478968340	1361.963876573831	427.970474174295	1061.659023111150	1438.515517670195	602.848677514617	1045.722660924518	1498.805369149975	423.754056137813	1067.225381172947	949.885544413681	566.225003105711	1059.425589337642	961.230153359481	292.524460571206	1147.846598522846	781.708257236578	535.626934501606	1110.980686677736	661.960996619989	612.326025547613	1199.531402224261	621.620658116446	532.012065664939	1218.061343943736	506.887326517999	555.238836955219	1106.955462496670	752.414142445060	323.929595849764	1013.813430362298	638.840197742623	266.587194073118	1094.950250467658	559.943103533525	332.449119719107	1093.913671708762	490.508849775517	343.747705214635	1066.121477831973	418.591212352901	335.800336637682	975.090689731560	304.629133749844	287.911558389066	1025.163976517307	194.071401596379	360.094922078127	1137.859751056496	434.971543324558	565.268639525635	1013.017216699535	404.268358599447	624.820722192265	994.959629079561	293.422778500597	580.092063413637	794.451276446770	251.469431133222	551.934391877805	951.917954855687	165.822784762027	592.552190749951	841.558471259804	177.815161784626	621.664887714274	998.216558741422	42.208114585301	608.820219512386	895.256223636219	38.755009520257	406.409688647255	966.570541960157	36.220524718640	323.040533422337	1050.866003957581	96.767757227661	347.707407791845	1178.625740507780	41.672498174759	314.449496242202	1067.352910702466	1105.801907829638	113.486951322708	1265.129611585847	933.631535923701	127.840267237782	1003.033129765105	1091.317907103678	716.531380784225	1104.935273505735	849.205250565283	723.590392781378	
2	44.591571428571	844.214407569641	1018.722203438815	443.109990323514	1043.333316057675	1439.423304260013	266.955715629799	1142.328371508988	1362.019174086622	428.351482222360	1060.577251645559	1438.772192481759	602.606519564490	1046.027666458900	1499.084114550400	423.384515205940	1065.854446413029	950.717371719020	566.427230475613	1059.464612749666	961.599176165308	292.495114752687	1149.088566744650	786.016643604974	536.191637874598	1114.851816491515	665.520472415468	612.773746977003	1204.249329884680	627.111750967064	532.565927334834	1225.830540505813	513.762525991790	556.097888545877	1103.983029288648	751.360878290992	324.667599002708	1009.691895204261	638.923091817978	266.413894532630	1089.159915676082	559.061574203175	332.639782227312	1087.010735811638	489.766296463874	343.926694525218	1059.239834309806	418.203189937134	335.789640864375	967.865207237398	304.650113729837	287.718079152883	1016.955299785186	193.851833805414	360.109425963371	1148.937587517937	438.990474610441	565.876535555240	1026.039821618522	401.594173541686	624.376205512308	1014.456259389662	290.266569182061	579.753504255139	817.447128697274	236.176956602718	549.758090964753	978.621371396319	161.683001275301	592.510374863634	868.141739506612	166.968106443929	620.732564405857	1032.393302716831	42.430925221053	611.251442016026	886.689361153041	38.838405632586	406.308756310946	958.037744658727	36.214409842772	322.989873293676	1042.359778700665	96.737692240881	347.637008992277	1170.096921356679	41.577471258096	314.388908430358	1075.183325347725	1108.325693845349	111.877913073115	1281.187453771278	949.223859193957	130.014380205848	996.006567059577	1092.789020803466	715.706674021302	1080.612243506223	846.137712082156	724.912574019374	
3	44.603142857143	843.327077209097	1018.981212634166	442.120431513359	1045.044795260944	1439.835510275766	266.591100094035	1142.420504263876	1362.056520644705	428.747988959810	1059.528217976974	1439.017759449663	602.386482553975	1046.343663107556	1499.342296387411	423.034086626520	1064.502126326911	951.516973109002	566.650784689272	1059.484171045310	961.937160681427	292.500193146870	1150.257649148174	790.196571838490	536.770095752800	1118.523434718923	668.939684819614	613.189415910372	1208.751779716058	632.412961527154	533.135845915026	1233.265403163202	520.463068347181	556.964718571328	1101.048286779104	750.318740803985	325.433666458062	1005.622513605982	639.009535970890	266.245937891515	1083.424126582564	558.188947373016	332.836625792954	1080.180383954381	489.044201018575	344.103856720065	1052.431279089129	417.823309518494	335.782376435587	960.722119544333	304.670675042222	287.530038379022	1008.854642237385	193.640221334278	360.121584003221	1159.758413610200	442.885619613472	566.476778817017	1038.966637553626	398.773176784352	624.039865312383	1033.847775612333	287.055035949826	579.493467811591	840.490049099322	220.887993810333	547.841073946909	1005.262928484418	157.542264889147	592.545227764373	894.770178793342	156.124233626644	619.971906081916	1066.441902196293	42.715645206896	613.612904137851	878.230559157802	38.922162008011	406.205002837425	949.610219437070	36.209719200526	322.940376225364	1033.959648674415	96.708625478414	347.568735745788	1161.672911993547	41.484088769892	314.330475636673	1082.867251927272	1110.793147074784	110.337345570910	1296.820085903360	964.668390733016	132.227943860561	988.981900153424	1094.288413563121	714.925165762907	1056.840905958136	843.380975163961	726.103599136245	
4	44.614714285714	842.483405989508	1019.213515321985	441.182513386759	1046.740470707692	1440.175280150530	266.287833913824	1142.539627259373	1362.049869003822	429.182625813603	1058.550531695938	1439.233784631682	602.216421128845	1046.686421027956	1499.549523796812	422.729638873940	1063.207735896608	952.239933621308	566.921010297008	1059.478000201844	962.210520411480	292.576127150602	1151.258318996682	794.056169260838	537.385121558095	1121.756407089265	672.038767171029	613.578526458835	1212.766027288982	637.268962581500	533.748737696785	1239.989373404160	526.788604003033	557.839448345699	1098.160139902578	749.279439862220	326.243410415981	1001.607859089458	639.096661633972	266.090150503039	1077.740614642362	557.320527449982	333.040568866054	1073.429072203864	488.349810345113	344.273214755020	1045.697449365368	417.453455489915	335.779201342967	953.662338266932	304.690502408314	287.353001065973	1000.885093245080	193.441007358334	360.129045968936	1170.063617603119	446.530492070034	567.075505190234	1051.776817115769	395.651717174260	623.938023838046	1053.145768247497	283.767137501560	579.396774340120	863.869174561140	205.584284102009	546.439064180403	1031.971768641380	153.486828504788	592.741103805861	921.728878558896	145.325657739004	619.551145859916	1100.440337024647	43.286674178725	615.837171949447	869.898175151328	39.006487159321	406.097639993259	941.302982509149	36.207411170893	322.893863574886	1025.680954158204	96.680429573161	347.505091937976	1153.368220438568	41.393917984045	314.276132162117	1090.301279798677	1113.160175449345	108.931430727497	1311.656354211216	979.904452371667	134.551786294037	981.899712156662	1095.885918109061	714.228893821762	1034.018130556314	841.250168584679	727.065474178421	
5	44.626285714286	841.714370240693	1019.398981485172	440.330754974928	1048.412764804163	1440.406526269635	266.076157045255	1142.699937062424	1361.975756452955	429.674568857286	1057.678360364761	1439.403139253234	602.119320405165	1047.070618605572	1499.678568516012	422.494978592003	1062.012868213856	952.846215533683	567.259883010972	1059.447709479035	962.395027426217	292.751135307124	1152.006621827775	797.414294604825	538.053652735349	1124.336680377305	674.652221793785	613.953809115163	1216.048673762698	641.442250510246	534.428085007247	1245.685865629862	532.559825854514	558.712024086939	1095.317137671213	748.230732147204	327.101055602483	997.634280306349	639.179470364171	265.951675591022	1072.093048807076	556.449126095130	333.247827405702	1066.745345054143	487.685089543865	344.426928022063	1039.021084290037	417.094040000902	335.778477628126	946.664458574247	304.709192603266	287.191440840495	993.043073747065	193.256647089074	360.129855012011	1179.635951364744	449.819760125181	567.676052136235	1064.477298539609	392.114970993461	624.181420147321	1072.383783850780	280.409964850852	579.532611986403	887.883566699811	190.273606888893	545.765963296657	1058.897163933228	149.632562558111	593.163545090341	949.313074867639	134.648095373720	619.610642388006	1134.494141532123	44.391722713756	617.856732440532	861.683176206449	39.090906544275	405.987866199232	933.104484244048	36.207893057101	322.852186957111	1017.512453761585	96.652689138650	347.448105236253	1145.170799994881	41.308171597086	314.227260507041	1097.414334416093	1115.393845042879	107.710114944711	1325.410701358215	994.893203274047	137.048363712374	974.694860809759	1097.653073116251	713.652533711221	1012.421019821290	839.982236246991	727.738013585830	
